<svg width="16" height="16" viewBox="0 0 16 16" fill="none" xmlns="http://www.w3.org/2000/svg">
<g id="ic-actions-star" clip-path="url(#clip0_5808_40504)">
<g id="Layer">
<path id="Vector" fill-rule="evenodd" clip-rule="evenodd" d="M7.3341 2.12663C7.38014 1.9806 7.47155 1.85306 7.59503 1.76252C7.71851 1.67198 7.86764 1.62317 8.02076 1.62317C8.17388 1.62317 8.32301 1.67198 8.44649 1.76252C8.56997 1.85306 8.66138 1.9806 8.70743 2.12663L9.94743 5.93996H13.9474C14.106 5.93397 14.2622 5.98006 14.3921 6.07119C14.5221 6.16232 14.6186 6.29348 14.667 6.44464C14.7153 6.5958 14.7129 6.75863 14.66 6.90827C14.6071 7.0579 14.5067 7.18611 14.3741 7.2733L11.1274 9.62663L12.3674 13.4466C12.4165 13.5921 12.4177 13.7495 12.371 13.8958C12.3242 14.042 12.2319 14.1695 12.1076 14.2596C11.9832 14.3497 11.8333 14.3977 11.6798 14.3966C11.5263 14.3954 11.3771 14.3452 11.2541 14.2533L8.00076 11.8733L4.7541 14.2333C4.6311 14.3252 4.48194 14.3754 4.32839 14.3766C4.17484 14.3777 4.02495 14.3297 3.90061 14.2396C3.77627 14.1495 3.68398 14.022 3.63723 13.8758C3.59049 13.7295 3.59172 13.5721 3.64076 13.4266L4.88076 9.60663L1.6341 7.2533C1.50148 7.16611 1.40106 7.0379 1.34818 6.88827C1.29529 6.73863 1.29284 6.5758 1.34121 6.42464C1.38958 6.27348 1.48611 6.14232 1.61604 6.05119C1.74597 5.96006 1.90217 5.91397 2.06076 5.91996H6.06076L7.3341 2.12663Z" stroke="#EBEBEB" stroke-width="1.5" stroke-linecap="round" stroke-linejoin="round"/>
</g>
</g>
<defs>
<clipPath id="clip0_5808_40504">
<rect width="16" height="16" fill="white"/>
</clipPath>
</defs>
</svg>
